<?xml version="1.0" ?><svg baseProfile="tiny" id="Layer_1" version="1.2" viewBox="0 0 512 512" xml:space="preserve" xmlns="http://www.w3.org/2000/svg" xmlns:xlink="http://www.w3.org/1999/xlink"><g id="XMLID_1681_"><circle cx="256" cy="256" fill="#00AEBB" id="XMLID_1643_" r="256"/><g id="XMLID_563_"><path d="M305.7,175.2h-99.1v32.5h99.1V175.2z M236.7,198.5h-2v-7.3h-7.6v7.3h-2v-15.6h2v6.5h7.6    v-6.5h2V198.5z M246.3,198.7c-4.1,0-7-3.2-7-7.9c0-4.9,3.1-8.2,7.2-8.2c4.2,0,7,3.3,7,7.9C253.5,195.9,250.2,198.7,246.3,198.7z     M265.3,184.6h-4.7v13.8h-2v-13.8h-4.7v-1.7h11.5V184.6z M275.8,198.5H267v-15.6h8.4v1.7H269v4.9h6.1v1.7H269v5.6h6.7L275.8,198.5    L275.8,198.5z M287,198.5h-8.6v-15.6h2v13.9h6.7V198.5z" fill="#FFFFFF" id="XMLID_692_"/><path d="M246.5,184.3c-3.3,0-5,3.1-5,6.5c0,3.3,1.8,6.3,5,6.3c3.2,0,5-2.9,5-6.5    C251.4,187.5,249.8,184.3,246.5,184.3z" fill="#FFFFFF" id="XMLID_691_"/><path d="M407.4,160.8c0-3.4-2.8-6.1-6.1-6.1H315c-3.4,0-6.1,2.8-6.1,6.1V211H203.2v-50.2    c0-3.4-2.8-6.1-6.1-6.1h-86.3c-3.4,0-6.1,2.8-6.1,6.1v231.2h302.7L407.4,160.8L407.4,160.8z M136.4,386.6h-22v-9.2h22V386.6z     M136.4,370.2h-22v-9.2h22V370.2z M136.4,353.9h-22v-9.2h22V353.9z M136.4,337.7h-22v-9.2h22V337.7z M136.4,321.3h-22v-9.2h22    V321.3z M136.4,305h-22v-9.2h22V305z M136.4,288.7h-22v-9.2h22V288.7z M136.4,272.4h-22v-9.2h22V272.4z M136.4,256.1h-22v-9.2h22    V256.1z M136.4,239.8h-22v-9.2h22V239.8z M136.4,223.5h-22v-9.2h22V223.5z M136.4,207.2h-22V198h22V207.2z M136.4,190.8h-22v-9.2    h22V190.8z M136.4,174.5h-22v-9.2h22V174.5z M165.3,386.6H146v-9.2h19.3V386.6z M165.3,370.2H146v-9.2h19.3V370.2z M165.3,353.9    H146v-9.2h19.3V353.9z M165.3,337.7H146v-9.2h19.3V337.7z M165.3,321.3H146v-9.2h19.3V321.3z M165.3,305H146v-9.2h19.3V305z     M165.3,288.7H146v-9.2h19.3V288.7z M165.3,272.4H146v-9.2h19.3V272.4z M165.3,256.1H146v-9.2h19.3V256.1z M165.3,239.8H146v-9.2    h19.3V239.8z M165.3,223.5H146v-9.2h19.3V223.5z M165.3,207.2H146V198h19.3V207.2z M165.3,190.8H146v-9.2h19.3V190.8z     M165.3,174.5H146v-9.2h19.3V174.5z M193.6,386.6h-18.7v-9.2h18.7V386.6z M193.6,370.2h-18.7v-9.2h18.7V370.2z M193.6,353.9h-18.7    v-9.2h18.7V353.9z M193.6,337.7h-18.7v-9.2h18.7V337.7z M193.6,321.3h-18.7v-9.2h18.7V321.3z M193.6,305h-18.7v-9.2h18.7V305z     M193.6,288.7h-18.7v-9.2h18.7V288.7z M193.6,272.4h-18.7v-9.2h18.7V272.4z M193.6,256.1h-18.7v-9.2h18.7V256.1z M193.6,239.8    h-18.7v-9.2h18.7V239.8z M193.6,223.5h-18.7v-9.2h18.7V223.5z M193.6,207.2h-18.7V198h18.7V207.2z M193.6,190.8h-18.7v-9.2h18.7    V190.8z M193.6,174.5h-18.7v-9.2h18.7V174.5z M225.2,385.9h-18.4v-18.4h18.4V385.9z M225.2,361.7h-18.4v-18.4h18.4V361.7z     M225.2,337.5h-18.4v-18.4h18.4V337.5z M225.2,313.3h-18.4V295h18.4V313.3z M225.2,289.2h-18.4v-18.4h18.4V289.2z M225.2,264.9    h-18.4v-18.4h18.4V264.9z M225.2,240.7h-18.4v-18.4h18.4V240.7z M251.1,385.9h-18.4v-18.4h18.4V385.9z M251.1,361.7h-18.4v-18.4    h18.4V361.7z M251.1,337.5h-18.4v-18.4h18.4V337.5z M251.1,313.3h-18.4V295h18.4V313.3z M251.1,289.2h-18.4v-18.4h18.4V289.2z     M251.1,264.9h-18.4v-18.4h18.4V264.9z M251.1,240.7h-18.4v-18.4h18.4V240.7z M276.9,385.9h-18.4v-18.4h18.4V385.9z M276.9,361.7    h-18.4v-18.4h18.4V361.7z M276.9,337.5h-18.4v-18.4h18.4V337.5z M276.9,313.3h-18.4V295h18.4V313.3z M276.9,289.2h-18.4v-18.4    h18.4V289.2z M276.9,264.9h-18.4v-18.4h18.4V264.9z M276.9,240.7h-18.4v-18.4h18.4V240.7z M302.8,385.9h-18.4v-18.4h18.4V385.9z     M302.8,361.7h-18.4v-18.4h18.4V361.7z M302.8,337.5h-18.4v-18.4h18.4V337.5z M302.8,313.3h-18.4V295h18.4V313.3z M302.8,289.2    h-18.4v-18.4h18.4V289.2z M302.8,264.9h-18.4v-18.4h18.4V264.9z M302.8,240.7h-18.4v-18.4h18.4V240.7z M340.5,386.6h-22v-9.2h22    V386.6z M340.5,370.2h-22v-9.2h22V370.2z M340.5,353.9h-22v-9.2h22V353.9z M340.5,337.7h-22v-9.2h22V337.7z M340.5,321.3h-22v-9.2    h22V321.3z M340.5,305h-22v-9.2h22V305z M340.5,288.7h-22v-9.2h22V288.7z M340.5,272.4h-22v-9.2h22V272.4z M340.5,256.1h-22v-9.2    h22V256.1z M340.5,239.8h-22v-9.2h22V239.8z M340.5,223.5h-22v-9.2h22V223.5z M340.5,207.2h-22V198h22V207.2z M340.5,190.8h-22    v-9.2h22V190.8z M340.5,174.5h-22v-9.2h22V174.5z M369.5,386.6h-19.3v-9.2h19.3V386.6z M369.5,370.2h-19.3v-9.2h19.3V370.2z     M369.5,353.9h-19.3v-9.2h19.3V353.9z M369.5,337.7h-19.3v-9.2h19.3V337.7z M369.5,321.3h-19.3v-9.2h19.3V321.3z M369.5,305h-19.3    v-9.2h19.3V305z M369.5,288.7h-19.3v-9.2h19.3V288.7z M369.5,272.4h-19.3v-9.2h19.3V272.4z M369.5,256.1h-19.3v-9.2h19.3V256.1z     M369.5,239.8h-19.3v-9.2h19.3V239.8z M369.5,223.5h-19.3v-9.2h19.3V223.5z M369.5,207.2h-19.3V198h19.3V207.2z M369.5,190.8    h-19.3v-9.2h19.3V190.8z M369.5,174.5h-19.3v-9.2h19.3V174.5z M397.8,386.6h-18.7v-9.2h18.7V386.6z M397.8,370.2h-18.7v-9.2h18.7    V370.2z M397.8,353.9h-18.7v-9.2h18.7V353.9z M397.8,337.7h-18.7v-9.2h18.7V337.7z M397.8,321.3h-18.7v-9.2h18.7V321.3z     M397.8,305h-18.7v-9.2h18.7V305z M397.8,288.7h-18.7v-9.2h18.7V288.7z M397.8,272.4h-18.7v-9.2h18.7V272.4z M397.8,256.1h-18.7    v-9.2h18.7V256.1z M397.8,239.8h-18.7v-9.2h18.7V239.8z M397.8,223.5h-18.7v-9.2h18.7V223.5z M397.8,207.2h-18.7V198h18.7V207.2z     M397.8,190.8h-18.7v-9.2h18.7V190.8z M397.8,174.5h-18.7v-9.2h18.7V174.5z" fill="#FFFFFF" id="XMLID_577_"/><path d="M413.4,391.9h-6.1v5.3h-95.2h-3.2H203.2h-5.7h-92.8v-5.3h-6.1c-1.5,0-2.6,1.2-2.6,2.6v9    h320v-9C416.1,393.1,414.9,391.9,413.4,391.9z" fill="#FFFFFF" id="XMLID_576_"/><path d="M305.7,108.5h-99.1V173h99.1V108.5z M224.7,167.1h-11.6v-20.3h11.6V167.1z M224.7,134    h-11.6v-20.3h11.6V134z M243.5,167.1h-11.6v-20.3h11.6V167.1z M243.5,134h-11.6v-20.3h11.6V134z M262.3,167.1h-11.6v-20.3h11.6    V167.1z M262.3,134h-11.6v-20.3h11.6V134z M281.1,167.1h-11.6v-20.3h11.6V167.1z M281.1,134h-11.6v-20.3h11.6V134z M299.8,167.1    h-11.6v-20.3h11.6V167.1z M299.8,134h-11.6v-20.3h11.6V134z" fill="#FFFFFF" id="XMLID_564_"/></g></g></svg>